<svg width="161" height="157" viewBox="0 0 161 157" fill="none" xmlns="http://www.w3.org/2000/svg">
<path d="M79.8893 71.729L75.6496 65.5037L79.4667 59.862H82.6934L78.4403 65.4165V65.5171L83.1831 71.729H79.8893ZM75.6161 59.862V71.729H72.9529L72.9998 65.6848L72.9529 59.862H75.6161Z" fill="white"/>
<path d="M86.2856 71.729L86.3326 67.4558L82.6899 59.862H85.5074L87.587 65.2957H87.6876L89.7605 59.862H92.578L88.9354 67.4558L88.9689 71.729H86.2856Z" fill="white"/>
<path d="M92.2773 59.862H101.508V62.1562L98.1337 62.1093L98.1807 71.729H95.5309L95.5846 62.1093L92.2773 62.1562V59.862Z" fill="white"/>
<path d="M102.656 71.729V59.862H109.781V62.1227L105.286 62.0757L105.219 64.6048H109.358V66.832H105.219L105.286 69.5019L109.781 69.4683V71.729H102.656Z" fill="white"/>
<path d="M119.636 62.2233C118.241 62.059 117.171 61.9751 116.43 61.9751C115.687 61.9751 115.185 62.0758 114.927 62.277C114.417 62.6845 114.162 63.9122 114.162 65.9599C114.162 66.8907 114.243 67.6554 114.404 68.2541C114.568 68.8495 114.773 69.2386 115.014 69.4214C115.259 69.6008 115.62 69.6897 116.094 69.6897C116.572 69.6897 117.097 69.6142 117.671 69.4616C118.248 69.3107 118.902 69.086 119.636 68.7908L120.394 70.7832C120.26 70.8737 120.067 70.9827 119.817 71.1119C119.571 71.2427 119.081 71.4138 118.348 71.6284C117.619 71.8431 116.899 71.9504 116.188 71.9504C114.68 71.9504 113.505 71.4674 112.66 70.5014C111.818 69.5321 111.398 67.9992 111.398 65.9062C111.398 63.9256 111.714 62.4447 112.344 61.4653C112.634 61.0058 113.002 60.6385 113.444 60.3651C113.891 60.0884 114.353 59.9006 114.833 59.8016C115.311 59.6993 115.814 59.6473 116.342 59.6473C116.869 59.6473 117.491 59.6909 118.207 59.7748C118.922 59.8553 119.492 59.9526 119.918 60.0633L119.636 62.2233Z" fill="white"/>
<path d="M122.385 59.862H125.692L129.355 68.2877H129.456L129.255 59.862H131.703V71.729H128.396L124.733 63.3101H124.626L124.834 71.729H122.385V59.862Z" fill="white"/>
<path d="M140.943 71.6821C140.374 71.8599 139.718 71.9504 138.977 71.9504C138.234 71.9504 137.577 71.8599 137.005 71.6821C136.436 71.4993 135.911 71.189 135.428 70.7496C134.417 69.8507 133.912 68.1921 133.912 65.772C133.912 63.0485 134.61 61.249 136.005 60.3718C136.757 59.8888 137.746 59.6473 138.977 59.6473C140.899 59.6473 142.259 60.2544 143.056 61.4653C143.708 62.4581 144.035 63.8937 144.035 65.772C144.035 68.1921 143.529 69.8507 142.519 70.7496C142.036 71.189 141.51 71.4993 140.943 71.6821ZM137.629 62.2435C137.32 62.4229 137.08 62.7919 136.911 63.3503C136.745 63.9055 136.663 64.7222 136.663 65.7989C136.663 66.8722 136.75 67.6906 136.924 68.2541C137.099 68.8176 137.34 69.1866 137.649 69.361C137.957 69.5321 138.397 69.6159 138.97 69.6159C139.547 69.6159 139.987 69.527 140.292 69.3476C140.953 68.9686 141.285 67.7879 141.285 65.8056C141.285 63.8032 140.964 62.6158 140.326 62.2435C140.007 62.0657 139.556 61.9751 138.97 61.9751C138.388 61.9751 137.941 62.0657 137.629 62.2435Z" fill="white"/>
<mask id="mask0_5_3320" style="mask-type:luminance" maskUnits="userSpaceOnUse" x="12" y="32" width="65" height="66">
<path d="M12.8799 32.4933H76.4212V97.3227H12.8799V32.4933Z" fill="white"/>
</mask>
<g mask="url(#mask0_5_3320)">
<mask id="mask1_5_3320" style="mask-type:luminance" maskUnits="userSpaceOnUse" x="-13" y="14" width="103" height="105">
<path d="M56.3483 14.9796L89.0497 87.4782L20.3665 118.461L-12.3367 45.9603L56.3483 14.9796Z" fill="white"/>
</mask>
<g mask="url(#mask1_5_3320)">
<mask id="mask2_5_3320" style="mask-type:luminance" maskUnits="userSpaceOnUse" x="-13" y="14" width="103" height="105">
<path d="M56.3483 14.9796L89.0497 87.4782L20.3665 118.461L-12.3367 45.9603L56.3483 14.9796Z" fill="white"/>
</mask>
<g mask="url(#mask2_5_3320)">
<path d="M76.0003 71.244C73.1392 90.3963 52.9069 101.614 34.9117 95.233C20.8913 90.6429 11.5466 75.6212 13.5507 61.0155C16.9653 32.7499 54.0959 22.181 70.4726 46.2756C56.6082 29.0017 28.0139 31.0074 18.151 51.3521C3.73309 81.5564 40.3287 109.435 65.7097 87.6425C70.7577 83.4364 74.3601 77.6052 76.0003 71.244Z" fill="white"/>
</g>
</g>
</g>
<path d="M45.8105 51.8511C44.1552 51.8511 42.8756 52.1647 41.9733 52.7903C41.0694 53.4175 40.6182 54.4808 40.6182 55.9835C40.6182 57.4861 41.2572 58.7272 42.5368 59.7066C43.8148 60.686 45.2302 61.5413 46.7832 62.2692C48.3395 62.9937 49.7298 63.6209 50.9558 64.1475C52.1851 64.6707 53.1259 65.0967 53.78 65.4221C54.4324 65.7491 55.3229 66.2137 56.4499 66.8174C57.5769 67.4178 58.4523 67.9813 59.0796 68.5079C59.7051 69.0312 60.4313 69.707 61.2598 70.5338C62.0866 71.3623 62.7021 72.2009 63.1046 73.0495C64.1544 75.2062 64.681 77.5139 64.681 79.9725C64.681 84.8343 62.9385 88.7704 59.4552 91.7791C55.9703 94.7845 51.422 96.2871 45.8105 96.2871C42.9527 96.2871 39.9944 95.898 36.9354 95.1199C33.8797 94.3417 31.5251 93.5535 29.8715 92.7518L27.3894 91.6248C27.4867 91.2223 27.6611 90.6957 27.9127 90.0417C28.2162 89.1428 29.0195 86.5382 30.3209 82.2265C36.4876 84.6817 42.1511 85.9093 47.3132 85.9093C48.7655 85.9093 50.0183 85.5857 51.0698 84.9366C52.1247 84.2842 52.653 82.7799 52.653 80.4219C52.653 79.3184 52.3511 78.4765 51.7474 77.8996C51.147 77.3227 50.6472 76.8732 50.2447 76.5512C49.8422 76.2259 49.2653 75.8602 48.5139 75.4577C47.7626 75.0552 47.1119 74.7299 46.5618 74.4783C45.408 73.9282 43.315 72.9404 40.2828 71.5132C37.2507 70.0827 35.057 68.8165 33.7019 67.7163C30.2438 65.0062 28.5164 61.3468 28.5164 56.7348C28.5164 52.1245 30.1331 48.4282 33.3665 45.6459C36.5999 42.8653 41.1985 41.4733 47.1656 41.4733C49.3206 41.4733 51.7004 41.6746 54.3032 42.0771C56.9094 42.4762 59.7437 43.1018 62.8027 43.9554L60.9244 53.5819C54.9087 52.428 49.8707 51.8511 45.8105 51.8511Z" fill="white"/>
<mask id="mask3_5_3320" style="mask-type:luminance" maskUnits="userSpaceOnUse" x="59" y="36" width="27" height="24">
<path d="M59.6772 36.3574H85.8666V59.5414H59.6772V36.3574Z" fill="white"/>
</mask>
<g mask="url(#mask3_5_3320)">
<mask id="mask4_5_3320" style="mask-type:luminance" maskUnits="userSpaceOnUse" x="59" y="36" width="28" height="24">
<path d="M85.6905 36.0958L86.1181 59.2764L60.3615 59.751L59.9338 36.5721L85.6905 36.0958Z" fill="white"/>
</mask>
<g mask="url(#mask4_5_3320)">
<mask id="mask5_5_3320" style="mask-type:luminance" maskUnits="userSpaceOnUse" x="59" y="36" width="28" height="24">
<path d="M85.6905 36.0958L86.1181 59.2764L60.3615 59.751L59.9338 36.5721L85.6905 36.0958Z" fill="white"/>
</mask>
<g mask="url(#mask5_5_3320)">
<path d="M72.5875 56.1855L73.847 54.6326L79.2405 59.0802C79.5893 59.3686 80.1042 59.3166 80.3893 58.9645C80.6744 58.6139 80.6241 58.0941 80.2736 57.8056L74.8801 53.3596L79.0443 48.2211L84.4395 52.6687C84.7883 52.9571 85.3032 52.9052 85.5883 52.553C85.8734 52.2008 85.8214 51.6826 85.4726 51.3941L80.0774 46.9482L81.3369 45.3952C81.7662 44.8652 81.6891 44.0854 81.1624 43.651C80.7029 43.2737 80.0556 43.2854 79.6111 43.6477L73.6927 38.7673C71.9066 37.2932 69.2753 37.5598 67.8145 39.361L66.9944 40.3723C66.1375 39.8742 64.7589 38.9904 63.1271 37.6454L61.7687 36.5251L60.9251 37.5666L60.0798 38.608L61.4399 39.7283C63.0701 41.0733 64.2021 42.259 64.8578 43.0087L64.0378 44.02C62.577 45.8212 62.842 48.476 64.6298 49.9485L70.5482 54.8288C70.2832 55.3386 70.4006 55.9826 70.8601 56.3599C71.3851 56.7943 72.1582 56.7155 72.5875 56.1855Z" fill="white"/>
</g>
</g>
</g>
<path d="M97.4262 51.8601C97.1713 52.0933 97.0438 52.7188 97.0438 53.7385C97.0438 54.7548 97.178 55.3954 97.4463 55.6638C97.6023 55.8114 97.8589 55.8851 98.2178 55.8851C98.575 55.8851 98.8383 55.865 99.0094 55.8248V54.4496L98.0836 54.3892V53.3561H100.405V56.6566C100.145 56.769 99.811 56.8679 99.4051 56.9518C99.0026 57.0356 98.6337 57.0792 98.2983 57.0792C97.9662 57.0792 97.6744 57.0524 97.4195 56.9987C97.1679 56.9501 96.9231 56.8511 96.6816 56.7036C96.4401 56.5526 96.2388 56.3581 96.0778 56.1199C95.7239 55.5833 95.5479 54.7883 95.5479 53.7318C95.5479 52.4086 95.8162 51.5147 96.3529 51.0484C96.6245 50.812 96.9231 50.651 97.2451 50.5654C97.5704 50.4766 98.0165 50.4313 98.58 50.4313C99.1469 50.4313 99.754 50.5101 100.398 50.6661L100.23 51.8266C99.4119 51.7377 98.7712 51.6924 98.3117 51.6924C97.8555 51.6924 97.5604 51.7495 97.4262 51.8601Z" fill="white"/>
<path d="M106.642 52.5645C106.642 53.5305 106.208 54.1678 105.341 54.4764V54.5368L106.897 56.9585H105.24L104.06 54.6776L103.241 54.6642V56.9585H101.812L101.846 53.9867L101.812 50.5587C103.256 50.4749 104.063 50.4313 104.234 50.4313C105.839 50.4313 106.642 51.1424 106.642 52.5645ZM103.241 53.4769C103.657 53.5171 104.021 53.5372 104.335 53.5372C104.647 53.5372 104.865 53.4634 104.985 53.3159C105.106 53.1683 105.166 52.8848 105.166 52.4639C105.166 52.0396 105.089 51.778 104.938 51.679C104.826 51.6086 104.583 51.5717 104.207 51.5717C103.835 51.5717 103.513 51.5901 103.241 51.6254V53.4769Z" fill="white"/>
<path d="M111.603 50.552H113.032V54.0672C113.032 55.1992 112.833 55.9841 112.435 56.4218C112.036 56.8612 111.422 57.0792 110.591 57.0792C109.762 57.0792 109.148 56.8645 108.746 56.4352C108.347 56.0025 108.149 55.2378 108.149 54.141V50.552H109.578V53.9062C109.578 54.4747 109.608 54.8973 109.671 55.174C109.739 55.4474 109.836 55.6269 109.967 55.7107C110.101 55.7962 110.309 55.8365 110.591 55.8315C110.876 55.8281 111.084 55.7845 111.214 55.704C111.344 55.6235 111.439 55.4491 111.503 55.1808C111.57 54.9124 111.603 54.4881 111.603 53.9062V50.552Z" fill="white"/>
<path d="M114.549 50.5587C115.528 50.4749 116.353 50.4313 117.024 50.4313C117.698 50.4313 118.215 50.6225 118.574 51.0015C118.936 51.3822 119.117 51.944 119.117 52.6853C119.117 53.5842 118.876 54.2131 118.393 54.5703C117.98 54.8755 117.462 55.0265 116.836 55.0265L115.978 54.9996V56.9585H114.549L114.582 53.9666L114.549 50.5587ZM117.44 51.7193C117.355 51.6354 117.153 51.5918 116.836 51.5918C116.518 51.5918 116.233 51.6052 115.978 51.6321V53.7586C116.233 53.8039 116.514 53.8257 116.823 53.8257C117.135 53.8257 117.348 53.772 117.46 53.6647C117.576 53.5574 117.635 53.2387 117.635 52.7054C117.635 52.1687 117.569 51.84 117.44 51.7193Z" fill="white"/>
<path d="M123.706 56.9316C123.397 57.0289 123.041 57.0792 122.639 57.0792C122.24 57.0792 121.888 57.0289 121.579 56.9316C121.274 56.8344 120.99 56.6667 120.727 56.4285C120.18 55.9422 119.909 55.0449 119.909 53.7385C119.909 52.2677 120.284 51.295 121.036 50.8204C121.447 50.5621 121.983 50.4313 122.646 50.4313C123.682 50.4313 124.418 50.76 124.853 51.4174C125.202 51.9507 125.376 52.7238 125.376 53.7385C125.376 55.0449 125.103 55.9422 124.558 56.4285C124.298 56.6667 124.014 56.8344 123.706 56.9316ZM121.914 51.84C121.748 51.9339 121.619 52.1335 121.525 52.4371C121.435 52.7373 121.391 53.1783 121.391 53.7586C121.391 54.3355 121.438 54.7766 121.532 55.0801C121.629 55.3854 121.762 55.5833 121.928 55.6772C122.092 55.7711 122.33 55.8181 122.639 55.8181C122.951 55.8181 123.191 55.7694 123.357 55.6705C123.714 55.4659 123.893 54.8286 123.893 53.7586C123.893 52.6769 123.719 52.0346 123.37 51.8333C123.199 51.7394 122.956 51.6924 122.639 51.6924C122.325 51.6924 122.084 51.7428 121.914 51.84Z" fill="white"/>
</svg>
